# xmcd
#
# Track frame offsets: 
#        150
#        20183
#        36430
#        54346
#        71541
#        98436
#        113509
#        154146
#        181730
#        199504
#        223389
#        243407
#        274774
#        291746
#
# Disc length: 4488 seconds
#
# Revision: 0
# Processed by: cddbd v1.5.2PL0 Copyright (c) Steve Scherf et al.
# Submitted via: ExactAudioCopy v1.0b4
#
DISCID=ce11860e
DTITLE=Delta Moon - Life's A Song - Live Volume One
DYEAR=2013
DGENRE=Blues
TTITLE0=Hell Bound Train
TTITLE1=Black Cat Oil
TTITLE2=Lonely
TTITLE3=Get Gone
TTITLE4=Black Coffee
TTITLE5=You Got To Move
TTITLE6=Goin' Down South
TTITLE7=I'm A Witness
TTITLE8=Clear Blue Flame
TTITLE9=Stuck In Carolina
TTITLE10=Life's A Song
TTITLE11=Blind Spot
TTITLE12=Lap Dog
TTITLE13=Shake Your Hips
EXTD=
EXTT0=
EXTT1=
EXTT2=
EXTT3=
EXTT4=
EXTT5=
EXTT6=
EXTT7=
EXTT8=
EXTT9=
EXTT10=
EXTT11=
EXTT12=
EXTT13=
PLAYORDER=
